<svg width="30" height="37" viewBox="0 0 30 37" fill="none" xmlns="http://www.w3.org/2000/svg">
<path fill-rule="evenodd" clip-rule="evenodd" d="M8 0H30V37H0V8C0 3.58172 3.58172 0 8 0ZM7.5 3C6.66667 3.33333 4.8 4.3 4 5.5C3.2 6.7 2.66667 8 2.5 8.5H7.5V3ZM12.8491 22.9192C10.2989 24.0653 8.37845 27.1795 8 30.9847C9.90038 32.3346 12.2517 33.1329 14.7973 33.1329C17.5271 33.1329 20.0336 32.2149 22.0001 30.6829C21.5525 27.0149 19.6663 24.034 17.1833 22.9187C18.9704 22.0972 20.2113 20.2913 20.2113 18.1955C20.2113 15.3261 17.8851 13 15.0157 13C12.1463 13 9.82018 15.3261 9.82018 18.1955C9.82018 20.2917 11.0615 22.0979 12.8491 22.9192Z" fill="#51B1F7"/>
</svg>
